<?xml version="1.0" standalone="no"?>
<!DOCTYPE svg PUBLIC "-//W3C//DTD SVG 20010904//EN"
 "http://www.w3.org/TR/2001/REC-SVG-20010904/DTD/svg10.dtd">
<svg version="1.0" xmlns="http://www.w3.org/2000/svg"
 width="32.000000pt" height="32.000000pt" viewBox="0 0 32.000000 32.000000"
 preserveAspectRatio="xMidYMid meet">
<metadata>
Created by potrace 1.10, written by Peter Selinger 2001-2011
</metadata>
<g transform="translate(0.000000,32.000000) scale(0.100000,-0.100000)"
fill="#000000" stroke="none">
<path d="M16 304 c-9 -8 -16 -23 -16 -32 1 -16 1 -16 11 0 5 10 19 24 32 33
17 12 18 15 5 15 -9 0 -24 -7 -32 -16z"/>
<path d="M270 307 c13 -7 30 -24 37 -37 12 -24 13 -24 13 -3 0 28 -25 53 -53
53 -21 0 -21 -1 3 -13z"/>
<path d="M198 280 c12 -5 22 -18 22 -29 0 -25 12 -32 27 -16 9 10 5 17 -17 34
-16 11 -35 21 -42 20 -7 0 -3 -4 10 -9z"/>
<path d="M84 262 c-17 -15 -19 -20 -7 -30 14 -13 14 -12 29 36 4 15 3 15 -22
-6z"/>
<path d="M31 211 c-1 -8 4 -42 10 -76 10 -60 12 -63 48 -75 34 -11 103 -10
156 2 21 5 29 27 38 108 4 35 3 46 -3 30 -4 -14 -8 -40 -9 -57 -1 -25 -5 -33
-20 -33 -10 0 -21 -7 -25 -15 -6 -17 -46 -21 -46 -5 0 6 -9 10 -20 10 -11 0
-20 -4 -20 -10 0 -16 -40 -12 -46 5 -4 8 -15 15 -25 15 -15 0 -19 8 -20 33 -1
34 -16 92 -18 68z"/>
<path d="M86 182 c-3 -5 5 -8 17 -8 15 1 23 -6 25 -21 6 -40 67 -38 67 2 0 14
6 20 23 19 14 0 19 3 13 9 -5 5 -19 5 -32 1 -13 -4 -26 -8 -29 -7 -3 0 -22 3
-42 7 -20 4 -39 3 -42 -2z"/>
<path d="M0 47 c0 -18 26 -47 42 -47 7 0 1 12 -13 28 -13 15 -25 29 -26 31 -2
2 -3 -3 -3 -12z"/>
<path d="M292 29 c-13 -16 -19 -29 -13 -29 14 0 41 29 41 46 0 18 -1 18 -28
-17z"/>
</g>
</svg>
